<svg xmlns="http://www.w3.org/2000/svg" viewBox="0 0 32 32" width="32" height="32">
  <!-- Shield background -->
  <path d="M16 2 L26 6 L26 18 C26 24 22 28 16 30 C10 28 6 24 6 18 L6 6 Z" 
        fill="url(#shieldGrad)" stroke="#1E90FF" stroke-width="1"/>
  
  <!-- Cube -->
  <g transform="translate(16, 12)">
    <path d="M-3 -2 L3 -2 L3 4 L-3 4 Z" fill="#1E90FF"/>
    <path d="M-3 -2 L0 -5 L6 -5 L3 -2 Z" fill="#4169E1"/>
    <path d="M3 -2 L6 -5 L6 1 L3 4 Z" fill="#191970"/>
  </g>
  
  <!-- Chain -->
  <ellipse cx="12" cy="18" rx="2" ry="1.5" fill="none" stroke="#9370DB" stroke-width="1"/>
  <ellipse cx="20" cy="18" rx="2" ry="1.5" fill="none" stroke="#9370DB" stroke-width="1"/>
  <rect x="15" y="17" width="2" height="2" rx="1" fill="#9370DB"/>
  
  <defs>
    <linearGradient id="shieldGrad" x1="0%" y1="0%" x2="0%" y2="100%">
      <stop offset="0%" style="stop-color:#E6F3FF"/>
      <stop offset="100%" style="stop-color:#FFFFFF"/>
    </linearGradient>
  </defs>
</svg>
